<svg xmlns="http://www.w3.org/2000/svg" xmlns:xlink="http://www.w3.org/1999/xlink" width="324" zoomAndPan="magnify" viewBox="0 0 242.87999 52.499999" height="70" preserveAspectRatio="xMidYMid meet" version="1.0"><defs><filter x="0%" y="0%" width="100%" height="100%" id="49f83a4648"><feColorMatrix values="0 0 0 0 1 0 0 0 0 1 0 0 0 0 1 0 0 0 1 0" color-interpolation-filters="sRGB"/></filter><g/><clipPath id="1c9dbd4aac"><path d="M 1.085938 0 L 241.675781 0 L 241.675781 52.003906 L 1.085938 52.003906 Z M 1.085938 0 " clip-rule="nonzero"/></clipPath><clipPath id="56106a6b56"><path d="M 0.0859375 0 L 240.675781 0 L 240.675781 52.003906 L 0.0859375 52.003906 Z M 0.0859375 0 " clip-rule="nonzero"/></clipPath><clipPath id="f2a16075a2"><path d="M 0.0859375 0 L 240.675781 0 L 240.675781 52.003906 L 0.0859375 52.003906 Z M 0.0859375 0 " clip-rule="nonzero"/></clipPath><clipPath id="501f042bdf"><path d="M 0.0859375 0 L 240.675781 0 L 240.675781 52.003906 L 0.0859375 52.003906 Z M 0.0859375 0 " clip-rule="nonzero"/></clipPath><linearGradient x1="1.549419" gradientTransform="matrix(0.921943, 0, 0, 0.923704, -1.342251, -3.154919)" y1="33" x2="262.507808" gradientUnits="userSpaceOnUse" y2="33" id="00373e5cf5"><stop stop-opacity="1" stop-color="rgb(45.489502%, 34.509277%, 90.979004%)" offset="0"/><stop stop-opacity="1" stop-color="rgb(45.597839%, 34.553528%, 90.992737%)" offset="0.03125"/><stop stop-opacity="1" stop-color="rgb(45.846558%, 34.657288%, 91.026306%)" offset="0.0390625"/><stop stop-opacity="1" stop-color="rgb(46.128845%, 34.776306%, 91.062927%)" offset="0.046875"/><stop stop-opacity="1" stop-color="rgb(46.412659%, 34.893799%, 91.099548%)" offset="0.0546875"/><stop stop-opacity="1" stop-color="rgb(46.694946%, 35.011292%, 91.136169%)" offset="0.0625"/><stop stop-opacity="1" stop-color="rgb(46.977234%, 35.128784%, 91.174316%)" offset="0.0703125"/><stop stop-opacity="1" stop-color="rgb(47.259521%, 35.246277%, 91.210938%)" offset="0.078125"/><stop stop-opacity="1" stop-color="rgb(47.541809%, 35.365295%, 91.247559%)" offset="0.0859375"/><stop stop-opacity="1" stop-color="rgb(47.825623%, 35.482788%, 91.28418%)" offset="0.09375"/><stop stop-opacity="1" stop-color="rgb(48.10791%, 35.600281%, 91.322327%)" offset="0.101563"/><stop stop-opacity="1" stop-color="rgb(48.390198%, 35.717773%, 91.358948%)" offset="0.109375"/><stop stop-opacity="1" stop-color="rgb(48.672485%, 35.835266%, 91.395569%)" offset="0.117188"/><stop stop-opacity="1" stop-color="rgb(48.956299%, 35.954285%, 91.43219%)" offset="0.125"/><stop stop-opacity="1" stop-color="rgb(49.238586%, 36.071777%, 91.470337%)" offset="0.132812"/><stop stop-opacity="1" stop-color="rgb(49.520874%, 36.18927%, 91.506958%)" offset="0.140625"/><stop stop-opacity="1" stop-color="rgb(49.803162%, 36.306763%, 91.543579%)" offset="0.148438"/><stop stop-opacity="1" stop-color="rgb(50.085449%, 36.424255%, 91.5802%)" offset="0.15625"/><stop stop-opacity="1" stop-color="rgb(50.369263%, 36.543274%, 91.618347%)" offset="0.164063"/><stop stop-opacity="1" stop-color="rgb(50.65155%, 36.660767%, 91.654968%)" offset="0.171875"/><stop stop-opacity="1" stop-color="rgb(50.933838%, 36.778259%, 91.691589%)" offset="0.179688"/><stop stop-opacity="1" stop-color="rgb(51.216125%, 36.895752%, 91.72821%)" offset="0.1875"/><stop stop-opacity="1" stop-color="rgb(51.499939%, 37.013245%, 91.764832%)" offset="0.195313"/><stop stop-opacity="1" stop-color="rgb(51.782227%, 37.132263%, 91.802979%)" offset="0.203125"/><stop stop-opacity="1" stop-color="rgb(52.064514%, 37.249756%, 91.8396%)" offset="0.210938"/><stop stop-opacity="1" stop-color="rgb(52.346802%, 37.367249%, 91.876221%)" offset="0.21875"/><stop stop-opacity="1" stop-color="rgb(52.630615%, 37.484741%, 91.912842%)" offset="0.226563"/><stop stop-opacity="1" stop-color="rgb(52.912903%, 37.60376%, 91.950989%)" offset="0.234375"/><stop stop-opacity="1" stop-color="rgb(53.19519%, 37.721252%, 91.98761%)" offset="0.242188"/><stop stop-opacity="1" stop-color="rgb(53.477478%, 37.838745%, 92.024231%)" offset="0.25"/><stop stop-opacity="1" stop-color="rgb(53.759766%, 37.956238%, 92.060852%)" offset="0.257813"/><stop stop-opacity="1" stop-color="rgb(54.043579%, 38.07373%, 92.098999%)" offset="0.265625"/><stop stop-opacity="1" stop-color="rgb(54.325867%, 38.192749%, 92.13562%)" offset="0.273438"/><stop stop-opacity="1" stop-color="rgb(54.608154%, 38.310242%, 92.172241%)" offset="0.28125"/><stop stop-opacity="1" stop-color="rgb(54.890442%, 38.427734%, 92.208862%)" offset="0.289063"/><stop stop-opacity="1" stop-color="rgb(55.174255%, 38.545227%, 92.247009%)" offset="0.296875"/><stop stop-opacity="1" stop-color="rgb(55.456543%, 38.66272%, 92.28363%)" offset="0.304688"/><stop stop-opacity="1" stop-color="rgb(55.738831%, 38.781738%, 92.320251%)" offset="0.3125"/><stop stop-opacity="1" stop-color="rgb(56.021118%, 38.899231%, 92.356873%)" offset="0.320313"/><stop stop-opacity="1" stop-color="rgb(56.303406%, 39.016724%, 92.393494%)" offset="0.328125"/><stop stop-opacity="1" stop-color="rgb(56.587219%, 39.134216%, 92.431641%)" offset="0.335938"/><stop stop-opacity="1" stop-color="rgb(56.869507%, 39.251709%, 92.468262%)" offset="0.34375"/><stop stop-opacity="1" stop-color="rgb(57.151794%, 39.370728%, 92.504883%)" offset="0.351563"/><stop stop-opacity="1" stop-color="rgb(57.434082%, 39.48822%, 92.541504%)" offset="0.359375"/><stop stop-opacity="1" stop-color="rgb(57.717896%, 39.605713%, 92.579651%)" offset="0.367188"/><stop stop-opacity="1" stop-color="rgb(58.000183%, 39.723206%, 92.616272%)" offset="0.375"/><stop stop-opacity="1" stop-color="rgb(58.282471%, 39.840698%, 92.652893%)" offset="0.382813"/><stop stop-opacity="1" stop-color="rgb(58.564758%, 39.959717%, 92.689514%)" offset="0.390625"/><stop stop-opacity="1" stop-color="rgb(58.847046%, 40.077209%, 92.727661%)" offset="0.398438"/><stop stop-opacity="1" stop-color="rgb(59.130859%, 40.194702%, 92.764282%)" offset="0.40625"/><stop stop-opacity="1" stop-color="rgb(59.413147%, 40.312195%, 92.800903%)" offset="0.414063"/><stop stop-opacity="1" stop-color="rgb(59.695435%, 40.429688%, 92.837524%)" offset="0.421875"/><stop stop-opacity="1" stop-color="rgb(59.977722%, 40.548706%, 92.875671%)" offset="0.429688"/><stop stop-opacity="1" stop-color="rgb(60.261536%, 40.666199%, 92.912292%)" offset="0.4375"/><stop stop-opacity="1" stop-color="rgb(60.543823%, 40.783691%, 92.948914%)" offset="0.445313"/><stop stop-opacity="1" stop-color="rgb(60.826111%, 40.901184%, 92.985535%)" offset="0.453125"/><stop stop-opacity="1" stop-color="rgb(61.108398%, 41.018677%, 93.022156%)" offset="0.460938"/><stop stop-opacity="1" stop-color="rgb(61.392212%, 41.137695%, 93.060303%)" offset="0.46875"/><stop stop-opacity="1" stop-color="rgb(61.6745%, 41.255188%, 93.096924%)" offset="0.476563"/><stop stop-opacity="1" stop-color="rgb(61.956787%, 41.372681%, 93.133545%)" offset="0.484375"/><stop stop-opacity="1" stop-color="rgb(62.239075%, 41.490173%, 93.170166%)" offset="0.492188"/><stop stop-opacity="1" stop-color="rgb(62.521362%, 41.609192%, 93.208313%)" offset="0.5"/><stop stop-opacity="1" stop-color="rgb(62.805176%, 41.726685%, 93.244934%)" offset="0.507813"/><stop stop-opacity="1" stop-color="rgb(63.087463%, 41.844177%, 93.281555%)" offset="0.515625"/><stop stop-opacity="1" stop-color="rgb(63.369751%, 41.96167%, 93.318176%)" offset="0.523438"/><stop stop-opacity="1" stop-color="rgb(63.652039%, 42.079163%, 93.356323%)" offset="0.53125"/><stop stop-opacity="1" stop-color="rgb(63.935852%, 42.198181%, 93.392944%)" offset="0.539063"/><stop stop-opacity="1" stop-color="rgb(64.21814%, 42.315674%, 93.429565%)" offset="0.546875"/><stop stop-opacity="1" stop-color="rgb(64.500427%, 42.433167%, 93.466187%)" offset="0.554688"/><stop stop-opacity="1" stop-color="rgb(64.782715%, 42.550659%, 93.504333%)" offset="0.5625"/><stop stop-opacity="1" stop-color="rgb(65.065002%, 42.668152%, 93.540955%)" offset="0.570313"/><stop stop-opacity="1" stop-color="rgb(65.348816%, 42.78717%, 93.577576%)" offset="0.578125"/><stop stop-opacity="1" stop-color="rgb(65.631104%, 42.904663%, 93.614197%)" offset="0.585938"/><stop stop-opacity="1" stop-color="rgb(65.913391%, 43.022156%, 93.650818%)" offset="0.59375"/><stop stop-opacity="1" stop-color="rgb(66.195679%, 43.139648%, 93.688965%)" offset="0.601563"/><stop stop-opacity="1" stop-color="rgb(66.479492%, 43.257141%, 93.725586%)" offset="0.609375"/><stop stop-opacity="1" stop-color="rgb(66.76178%, 43.37616%, 93.762207%)" offset="0.617188"/><stop stop-opacity="1" stop-color="rgb(67.044067%, 43.493652%, 93.798828%)" offset="0.625"/><stop stop-opacity="1" stop-color="rgb(67.326355%, 43.611145%, 93.836975%)" offset="0.632813"/><stop stop-opacity="1" stop-color="rgb(67.608643%, 43.728638%, 93.873596%)" offset="0.640625"/><stop stop-opacity="1" stop-color="rgb(67.892456%, 43.84613%, 93.910217%)" offset="0.648438"/><stop stop-opacity="1" stop-color="rgb(68.174744%, 43.965149%, 93.946838%)" offset="0.65625"/><stop stop-opacity="1" stop-color="rgb(68.457031%, 44.082642%, 93.984985%)" offset="0.664063"/><stop stop-opacity="1" stop-color="rgb(68.739319%, 44.200134%, 94.021606%)" offset="0.671875"/><stop stop-opacity="1" stop-color="rgb(69.023132%, 44.317627%, 94.058228%)" offset="0.679688"/><stop stop-opacity="1" stop-color="rgb(69.30542%, 44.43512%, 94.094849%)" offset="0.6875"/><stop stop-opacity="1" stop-color="rgb(69.587708%, 44.554138%, 94.132996%)" offset="0.695313"/><stop stop-opacity="1" stop-color="rgb(69.869995%, 44.671631%, 94.169617%)" offset="0.703125"/><stop stop-opacity="1" stop-color="rgb(70.153809%, 44.789124%, 94.206238%)" offset="0.710938"/><stop stop-opacity="1" stop-color="rgb(70.436096%, 44.906616%, 94.242859%)" offset="0.71875"/><stop stop-opacity="1" stop-color="rgb(70.718384%, 45.024109%, 94.27948%)" offset="0.726563"/><stop stop-opacity="1" stop-color="rgb(71.000671%, 45.143127%, 94.317627%)" offset="0.734375"/><stop stop-opacity="1" stop-color="rgb(71.282959%, 45.26062%, 94.354248%)" offset="0.742188"/><stop stop-opacity="1" stop-color="rgb(71.566772%, 45.378113%, 94.390869%)" offset="0.75"/><stop stop-opacity="1" stop-color="rgb(71.84906%, 45.495605%, 94.42749%)" offset="0.757813"/><stop stop-opacity="1" stop-color="rgb(72.131348%, 45.614624%, 94.465637%)" offset="0.765625"/><stop stop-opacity="1" stop-color="rgb(72.413635%, 45.732117%, 94.502258%)" offset="0.773438"/><stop stop-opacity="1" stop-color="rgb(72.697449%, 45.849609%, 94.538879%)" offset="0.78125"/><stop stop-opacity="1" stop-color="rgb(72.979736%, 45.967102%, 94.5755%)" offset="0.789063"/><stop stop-opacity="1" stop-color="rgb(73.262024%, 46.084595%, 94.613647%)" offset="0.796875"/><stop stop-opacity="1" stop-color="rgb(73.544312%, 46.203613%, 94.650269%)" offset="0.804688"/><stop stop-opacity="1" stop-color="rgb(73.826599%, 46.321106%, 94.68689%)" offset="0.8125"/><stop stop-opacity="1" stop-color="rgb(74.110413%, 46.438599%, 94.723511%)" offset="0.820313"/><stop stop-opacity="1" stop-color="rgb(74.3927%, 46.556091%, 94.761658%)" offset="0.828125"/><stop stop-opacity="1" stop-color="rgb(74.674988%, 46.673584%, 94.798279%)" offset="0.835938"/><stop stop-opacity="1" stop-color="rgb(74.957275%, 46.792603%, 94.8349%)" offset="0.84375"/><stop stop-opacity="1" stop-color="rgb(75.241089%, 46.910095%, 94.871521%)" offset="0.851563"/><stop stop-opacity="1" stop-color="rgb(75.523376%, 47.027588%, 94.908142%)" offset="0.859375"/><stop stop-opacity="1" stop-color="rgb(75.805664%, 47.145081%, 94.946289%)" offset="0.867188"/><stop stop-opacity="1" stop-color="rgb(76.087952%, 47.262573%, 94.98291%)" offset="0.875"/><stop stop-opacity="1" stop-color="rgb(76.370239%, 47.381592%, 95.019531%)" offset="0.882813"/><stop stop-opacity="1" stop-color="rgb(76.654053%, 47.499084%, 95.056152%)" offset="0.890625"/><stop stop-opacity="1" stop-color="rgb(76.93634%, 47.616577%, 95.094299%)" offset="0.898438"/><stop stop-opacity="1" stop-color="rgb(77.218628%, 47.73407%, 95.13092%)" offset="0.90625"/><stop stop-opacity="1" stop-color="rgb(77.500916%, 47.851562%, 95.167542%)" offset="0.914062"/><stop stop-opacity="1" stop-color="rgb(77.784729%, 47.970581%, 95.204163%)" offset="0.921875"/><stop stop-opacity="1" stop-color="rgb(78.067017%, 48.088074%, 95.24231%)" offset="0.929688"/><stop stop-opacity="1" stop-color="rgb(78.318787%, 48.193359%, 95.274353%)" offset="0.9375"/><stop stop-opacity="1" stop-color="rgb(78.42865%, 48.239136%, 95.289612%)" offset="1"/></linearGradient><clipPath id="3eb497d841"><rect x="0" width="241" y="0" height="53"/></clipPath><clipPath id="8d0a4e48e0"><path d="M 0.0859375 0 L 240.675781 0 L 240.675781 52.003906 L 0.0859375 52.003906 Z M 0.0859375 0 " clip-rule="nonzero"/></clipPath><clipPath id="327273b346"><rect x="0" width="241" y="0" height="53"/></clipPath><clipPath id="77b5f326a0"><rect x="0" width="241" y="0" height="53"/></clipPath><mask id="39fc66eb6c"><g filter="url(#49f83a4648)"><g transform="matrix(1, 0, 0, 1, 0.000000000000000222, 0)"><g clip-path="url(#77b5f326a0)"><g clip-path="url(#8d0a4e48e0)"><g transform="matrix(1, 0, 0, 1, 0.000000000000000222, 0)"><g clip-path="url(#327273b346)"><g fill="#000000" fill-opacity="1"><g transform="translate(6.483668, 39.322847)"><g><path d="M 33.390625 -12.609375 C 32.828125 -8.742188 31.09375 -5.609375 28.1875 -3.203125 C 25.28125 -0.804688 21.75 0.390625 17.59375 0.390625 C 12.9375 0.390625 9.097656 -1.09375 6.078125 -4.0625 C 3.054688 -7.039062 1.546875 -10.8125 1.546875 -15.375 C 1.546875 -19.945312 3.054688 -23.710938 6.078125 -26.671875 C 9.097656 -29.640625 12.9375 -31.125 17.59375 -31.125 C 21.75 -31.125 25.269531 -29.929688 28.15625 -27.546875 C 31.050781 -25.160156 32.796875 -22.035156 33.390625 -18.171875 L 27.0625 -18.171875 C 26.53125 -20.359375 25.414062 -22.117188 23.71875 -23.453125 C 22.03125 -24.796875 19.988281 -25.46875 17.59375 -25.46875 C 14.738281 -25.46875 12.394531 -24.523438 10.5625 -22.640625 C 8.738281 -20.753906 7.828125 -18.351562 7.828125 -15.4375 C 7.828125 -12.457031 8.738281 -10.007812 10.5625 -8.09375 C 12.394531 -6.175781 14.738281 -5.21875 17.59375 -5.21875 C 19.988281 -5.21875 22.03125 -5.894531 23.71875 -7.25 C 25.414062 -8.601562 26.53125 -10.390625 27.0625 -12.609375 Z M 33.390625 -12.609375 "/></g></g></g><g fill="#000000" fill-opacity="1"><g transform="translate(41.459704, 39.322847)"><g><path d="M 2.609375 -30.6875 L 8.359375 -30.6875 L 8.359375 0 L 2.609375 0 Z M 2.609375 -30.6875 "/></g></g></g><g fill="#000000" fill-opacity="1"><g transform="translate(52.42564, 39.322847)"><g><path d="M 8.0625 -30.21875 C 8.726562 -29.613281 9.0625 -28.835938 9.0625 -27.890625 C 9.0625 -26.953125 8.726562 -26.1875 8.0625 -25.59375 C 7.40625 -25.007812 6.5625 -24.71875 5.53125 -24.71875 C 4.5 -24.71875 3.65625 -25.019531 3 -25.625 C 2.351562 -26.226562 2.03125 -26.988281 2.03125 -27.90625 C 2.03125 -28.84375 2.351562 -29.613281 3 -30.21875 C 3.65625 -30.820312 4.5 -31.125 5.53125 -31.125 C 6.5625 -31.125 7.40625 -30.820312 8.0625 -30.21875 Z M 2.65625 -21.84375 L 8.453125 -21.84375 L 8.453125 0 L 2.65625 0 Z M 2.65625 -21.84375 "/></g></g></g><g fill="#000000" fill-opacity="1"><g transform="translate(63.524232, 39.322847)"><g><path d="M 24.984375 -10.875 C 24.984375 -10.195312 24.925781 -9.625 24.8125 -9.15625 L 7.15625 -9.15625 C 7.488281 -7.707031 8.210938 -6.535156 9.328125 -5.640625 C 10.453125 -4.742188 11.765625 -4.296875 13.265625 -4.296875 C 14.535156 -4.296875 15.671875 -4.625 16.671875 -5.28125 C 17.671875 -5.945312 18.378906 -6.78125 18.796875 -7.78125 L 24.578125 -7.78125 C 23.960938 -5.394531 22.59375 -3.4375 20.46875 -1.90625 C 18.351562 -0.375 15.9375 0.390625 13.21875 0.390625 C 9.800781 0.390625 6.976562 -0.664062 4.75 -2.78125 C 2.53125 -4.90625 1.421875 -7.617188 1.421875 -10.921875 C 1.421875 -14.222656 2.53125 -16.941406 4.75 -19.078125 C 6.976562 -21.210938 9.800781 -22.28125 13.21875 -22.28125 C 16.613281 -22.28125 19.414062 -21.210938 21.625 -19.078125 C 23.832031 -16.941406 24.953125 -14.207031 24.984375 -10.875 Z M 13.265625 -17.59375 C 11.910156 -17.59375 10.707031 -17.222656 9.65625 -16.484375 C 8.613281 -15.753906 7.859375 -14.769531 7.390625 -13.53125 L 19.375 -13.53125 C 18.925781 -14.738281 18.140625 -15.71875 17.015625 -16.46875 C 15.898438 -17.21875 14.648438 -17.59375 13.265625 -17.59375 Z M 13.265625 -17.59375 "/></g></g></g><g fill="#000000" fill-opacity="1"><g transform="translate(89.922078, 39.322847)"><g><path d="M 2.34375 0 L 2.34375 -12.828125 C 2.34375 -15.597656 3.300781 -17.863281 5.21875 -19.625 C 7.132812 -21.394531 9.609375 -22.28125 12.640625 -22.28125 C 15.679688 -22.28125 18.164062 -21.40625 20.09375 -19.65625 C 22.03125 -17.90625 23 -15.628906 23 -12.828125 L 23 0 L 17.203125 0 L 17.203125 -12.828125 C 17.203125 -14.210938 16.785156 -15.335938 15.953125 -16.203125 C 15.128906 -17.078125 14.039062 -17.515625 12.6875 -17.515625 C 11.332031 -17.515625 10.234375 -17.078125 9.390625 -16.203125 C 8.554688 -15.335938 8.140625 -14.210938 8.140625 -12.828125 L 8.140625 0 Z M 2.34375 0 "/></g></g></g><g fill="#000000" fill-opacity="1"><g transform="translate(115.258699, 39.322847)"><g><path d="M 15.5625 -21.84375 L 15.5625 -17.0625 L 10.703125 -17.0625 L 10.703125 0 L 4.90625 0 L 4.90625 -17.0625 L 0.84375 -17.0625 L 0.84375 -21.84375 L 4.90625 -21.84375 L 4.90625 -27.546875 L 10.703125 -27.546875 L 10.703125 -21.84375 Z M 15.5625 -21.84375 "/></g></g></g><g fill="#000000" fill-opacity="1"><g transform="translate(131.574956, 39.322847)"><g><path d="M 13.140625 -22.28125 C 16.523438 -22.28125 19.320312 -21.210938 21.53125 -19.078125 C 23.738281 -16.941406 24.84375 -14.222656 24.84375 -10.921875 L 24.84375 0 L 19.0625 0 L 19.0625 -3.046875 C 17.46875 -0.753906 14.972656 0.390625 11.578125 0.390625 C 8.691406 0.390625 6.273438 -0.648438 4.328125 -2.734375 C 2.390625 -4.828125 1.421875 -7.46875 1.421875 -10.65625 C 1.421875 -14.070312 2.515625 -16.863281 4.703125 -19.03125 C 6.898438 -21.195312 9.710938 -22.28125 13.140625 -22.28125 Z M 8.96875 -6.390625 C 10.0625 -5.191406 11.460938 -4.59375 13.171875 -4.59375 C 14.878906 -4.59375 16.285156 -5.191406 17.390625 -6.390625 C 18.503906 -7.585938 19.0625 -9.097656 19.0625 -10.921875 C 19.0625 -12.773438 18.503906 -14.300781 17.390625 -15.5 C 16.285156 -16.695312 14.878906 -17.296875 13.171875 -17.296875 C 11.460938 -17.296875 10.0625 -16.695312 8.96875 -15.5 C 7.882812 -14.300781 7.34375 -12.773438 7.34375 -10.921875 C 7.34375 -9.097656 7.882812 -7.585938 8.96875 -6.390625 Z M 8.96875 -6.390625 "/></g></g></g><g fill="#000000" fill-opacity="1"><g transform="translate(158.768717, 39.322847)"><g><path d="M 18.34375 -30.6875 L 24.09375 -30.6875 L 24.09375 -10.921875 C 24.09375 -7.617188 22.992188 -4.90625 20.796875 -2.78125 C 18.609375 -0.664062 15.800781 0.390625 12.375 0.390625 C 8.957031 0.390625 6.15625 -0.679688 3.96875 -2.828125 C 1.789062 -4.984375 0.703125 -7.769531 0.703125 -11.1875 C 0.703125 -14.394531 1.664062 -17.046875 3.59375 -19.140625 C 5.53125 -21.234375 7.957031 -22.28125 10.875 -22.28125 C 14.289062 -22.28125 16.78125 -21.117188 18.34375 -18.796875 Z M 12.296875 -4.203125 C 14.085938 -4.203125 15.539062 -4.828125 16.65625 -6.078125 C 17.78125 -7.328125 18.34375 -8.941406 18.34375 -10.921875 C 18.34375 -12.921875 17.78125 -14.546875 16.65625 -15.796875 C 15.539062 -17.054688 14.085938 -17.6875 12.296875 -17.6875 C 10.523438 -17.6875 9.078125 -17.054688 7.953125 -15.796875 C 6.835938 -14.546875 6.28125 -12.921875 6.28125 -10.921875 C 6.28125 -8.941406 6.835938 -7.328125 7.953125 -6.078125 C 9.078125 -4.828125 10.523438 -4.203125 12.296875 -4.203125 Z M 12.296875 -4.203125 "/></g></g></g><g fill="#000000" fill-opacity="1"><g transform="translate(185.608737, 39.322847)"><g><path d="M 4.75 -19.078125 C 6.976562 -21.210938 9.800781 -22.28125 13.21875 -22.28125 C 16.632812 -22.28125 19.445312 -21.210938 21.65625 -19.078125 C 23.875 -16.941406 24.984375 -14.222656 24.984375 -10.921875 C 24.984375 -7.617188 23.875 -4.90625 21.65625 -2.78125 C 19.445312 -0.664062 16.632812 0.390625 13.21875 0.390625 C 9.800781 0.390625 6.976562 -0.664062 4.75 -2.78125 C 2.53125 -4.90625 1.421875 -7.617188 1.421875 -10.921875 C 1.421875 -14.222656 2.53125 -16.941406 4.75 -19.078125 Z M 17.390625 -15.5 C 16.285156 -16.695312 14.878906 -17.296875 13.171875 -17.296875 C 11.460938 -17.296875 10.0625 -16.695312 8.96875 -15.5 C 7.882812 -14.300781 7.34375 -12.773438 7.34375 -10.921875 C 7.34375 -9.097656 7.882812 -7.585938 8.96875 -6.390625 C 10.0625 -5.191406 11.460938 -4.59375 13.171875 -4.59375 C 14.878906 -4.59375 16.285156 -5.191406 17.390625 -6.390625 C 18.503906 -7.585938 19.0625 -9.097656 19.0625 -10.921875 C 19.0625 -12.773438 18.503906 -14.300781 17.390625 -15.5 Z M 17.390625 -15.5 "/></g></g></g><g fill="#000000" fill-opacity="1"><g transform="translate(212.006583, 39.322847)"><g><path d="M 8.140625 0 L 2.34375 0 L 2.34375 -13 C 2.34375 -15.800781 3.300781 -17.972656 5.21875 -19.515625 C 7.132812 -21.066406 9.832031 -21.84375 13.3125 -21.84375 L 13.3125 -17.03125 C 9.863281 -17.03125 8.140625 -15.507812 8.140625 -12.46875 Z M 8.140625 0 "/></g></g></g></g></g></g></g></g></g></mask><clipPath id="7aadb72142"><path d="M 0.0859375 0 L 240.675781 0 L 240.675781 52.003906 L 0.0859375 52.003906 Z M 0.0859375 0 " clip-rule="nonzero"/></clipPath><clipPath id="b52134f68c"><rect x="0" width="241" y="0" height="53"/></clipPath><clipPath id="2dba3772f4"><rect x="0" width="241" y="0" height="53"/></clipPath><clipPath id="01eec025ab"><rect x="0" width="241" y="0" height="53"/></clipPath><clipPath id="9c913dcd74"><path d="M 228.457031 14.398438 L 240.34375 14.398438 L 240.34375 26 L 228.457031 26 Z M 228.457031 14.398438 " clip-rule="nonzero"/></clipPath></defs><g clip-path="url(#1c9dbd4aac)"><g transform="matrix(1, 0, 0, 1, 1, 0)"><g clip-path="url(#01eec025ab)"><g clip-path="url(#56106a6b56)"><g transform="matrix(1, 0, 0, 1, 0.000000000000000222, 0)"><g clip-path="url(#2dba3772f4)"><g clip-path="url(#f2a16075a2)"><g mask="url(#39fc66eb6c)"><g transform="matrix(1, 0, 0, 1, 0.000000000000000222, 0)"><g clip-path="url(#b52134f68c)"><g clip-path="url(#7aadb72142)"><path fill="url(#00373e5cf5)" d="M 0.0859375 0 L 0.0859375 52.003906 L 240.675781 52.003906 L 240.675781 0 Z M 0.0859375 0 " fill-rule="nonzero"/></g></g></g></g></g></g></g></g></g></g></g><g clip-path="url(#9c913dcd74)"><path fill="#c87af3" d="M 240.054688 20.195312 C 235.53125 20.898438 234.960938 21.46875 234.257812 25.992188 C 233.554688 21.46875 232.984375 20.898438 228.460938 20.195312 C 232.984375 19.492188 233.554688 18.921875 234.257812 14.398438 C 234.960938 18.921875 235.53125 19.492188 240.054688 20.195312 " fill-opacity="1" fill-rule="nonzero"/></g></svg>